<?xml version="1.0" encoding="UTF-8" standalone="no"?>
<svg
   xmlns:dc="http://purl.org/dc/elements/1.1/"
   xmlns:cc="http://creativecommons.org/ns#"
   xmlns:rdf="http://www.w3.org/1999/02/22-rdf-syntax-ns#"
   xmlns:svg="http://www.w3.org/2000/svg"
   xmlns="http://www.w3.org/2000/svg"
   xmlns:sodipodi="http://sodipodi.sourceforge.net/DTD/sodipodi-0.dtd"
   xmlns:inkscape="http://www.inkscape.org/namespaces/inkscape"
   version="1.1"
   id="svg2"
   xml:space="preserve"
   width="1104.752"
   height="1104.752"
   viewBox="0 0 1104.7519 1104.7519"
   sodipodi:docname="WCJ_Symbol_Cirkel_Rod.svg"
   inkscape:version="1.0.2 (e86c870879, 2021-01-15)"><metadata
     id="metadata8"><rdf:RDF><cc:Work
         rdf:about=""><dc:format>image/svg+xml</dc:format><dc:type
           rdf:resource="http://purl.org/dc/dcmitype/StillImage" /><dc:title></dc:title></cc:Work></rdf:RDF></metadata><defs
     id="defs6"><clipPath
       clipPathUnits="userSpaceOnUse"
       id="clipPath18"><path
         d="M 0,907.087 H 907.087 V 0 H 0 Z"
         id="path16" /></clipPath></defs><sodipodi:namedview
     pagecolor="#ffffff"
     bordercolor="#666666"
     borderopacity="1"
     objecttolerance="10"
     gridtolerance="10"
     guidetolerance="10"
     inkscape:pageopacity="0"
     inkscape:pageshadow="2"
     inkscape:window-width="1920"
     inkscape:window-height="1024"
     id="namedview4"
     showgrid="false"
     fit-margin-top="0"
     fit-margin-left="0"
     fit-margin-right="0"
     fit-margin-bottom="0"
     inkscape:zoom="0.22918352"
     inkscape:cx="919.25598"
     inkscape:cy="1025.6632"
     inkscape:window-x="0"
     inkscape:window-y="0"
     inkscape:window-maximized="1"
     inkscape:current-layer="g10" /><g
     id="g10"
     inkscape:groupmode="layer"
     inkscape:label="WCJ_Symbol_Cirkel_Rod"
     transform="matrix(1.3333333,0,0,-1.3333333,-50.941999,1157.177)"><g
       id="g12"><g
         id="g14"
         clip-path="url(#clipPath18)"><g
           id="g20"
           transform="translate(866.7705,453.6008)"><path
             d="m 0,0 c 0,-228.801 -185.48,-414.282 -414.282,-414.282 -228.802,0 -414.282,185.481 -414.282,414.282 0,228.802 185.48,414.282 414.282,414.282 C -185.48,414.282 0,228.802 0,0"
             style="fill:#a82621;fill-opacity:1;fill-rule:nonzero;stroke:none"
             id="path22" /></g><g
           id="g24"
           transform="translate(402.9019,663.757)"><path
             d="m 0,0 10.021,-64.837 c -55.869,-7.091 -72.866,-105.137 -72.866,-105.137 l -35.364,-168.734 -29.879,-4.619 -38.885,68.738 -16.111,-77.24 -29.721,-4.593 -114.147,201.659 70.953,10.968 41.458,-81.87 14.803,90.567 22.505,3.478 41.459,-81.869 9.603,58.601 c 0,0 17.653,140.75 126.171,154.888"
             style="fill:#ffffff;fill-opacity:1;fill-rule:nonzero;stroke:none"
             id="path26" /></g><g
           id="g28"
           transform="translate(695.333,629.4728)"><path
             d="m 0,0 c 3.796,-18.92 -8.465,-37.335 -27.385,-41.132 -18.92,-3.796 -37.336,8.465 -41.132,27.385 -3.796,18.92 8.464,37.335 27.385,41.132 C -22.212,31.181 -3.796,18.92 0,0"
             style="fill:#ffffff;fill-opacity:1;fill-rule:nonzero;stroke:none"
             id="path30" /></g><g
           id="g32"
           transform="translate(800.3066,414.6159)"><path
             d="m 0,0 0.066,0.033 -83.374,169.02 -57.511,-28.369 82.114,-166.466 c 6.895,-14.019 1.113,-31.035 -12.901,-37.949 -6.792,-3.352 -14.484,-3.857 -21.658,-1.421 -7.174,2.433 -12.969,7.515 -16.321,14.308 l -57.509,-28.369 c 18.925,-38.365 61.068,-57.815 101.156,-49.769 7.702,1.544 15.331,4.106 22.701,7.741 C 1.632,-99.108 20.6,-45.218 0,0"
             style="fill:#ffffff;fill-opacity:1;fill-rule:nonzero;stroke:none"
             id="path34" /></g><g
           id="g36"
           transform="translate(537.1143,329.5788)"><path
             d="m 0,0 c -30.066,-4.037 -60.242,0.773 -86.744,14.081 -33.772,16.961 -57.582,45.533 -67.044,80.461 -9.462,34.925 -3.332,71.611 17.261,103.298 19.831,30.516 50.907,52.784 87.503,62.697 38.261,10.372 77.713,6.109 111.087,-11.989 L 30.321,190.01 c -18.002,9.761 -40.576,12.037 -61.931,6.253 -20.759,-5.626 -38.188,-17.952 -49.079,-34.71 -10.131,-15.59 -13.265,-33.201 -8.823,-49.597 C -85.07,95.56 -73.474,81.936 -56.86,73.593 -38.997,64.622 -17.736,62.782 3.028,68.404 22.22,73.605 38.834,84.748 49.809,99.78 L 103.594,60.512 C 83.723,33.299 54.193,13.274 20.442,4.13 13.666,2.294 6.834,0.917 0,0"
             style="fill:#ffffff;fill-opacity:1;fill-rule:nonzero;stroke:none"
             id="path38" /></g></g></g></g></svg>
